<svg width="67" height="67" viewBox="0 0 67 67" fill="none" xmlns="http://www.w3.org/2000/svg">
<path d="M44.1406 2.06717C48.3434 0.316791 53.0976 -0.638847 57.5916 0.48419C60.6851 1.2448 63.4127 3.30072 64.9872 6.0685C63.8259 6.088 62.6645 6.09125 61.5032 6.10588C60.1777 4.18485 58.1527 2.79852 55.9163 2.15493C52.4617 1.13916 48.7858 1.32931 45.2743 1.92252C44.9002 1.99728 44.5212 2.05254 44.1406 2.06717Z" fill="#9437F0"/>
<path d="M31.2656 2.42927C32.0431 2.39514 32.8222 2.36263 33.6029 2.38863C33.7086 3.20613 33.7493 4.03175 33.7102 4.85412C32.9702 4.79886 32.2269 4.82811 31.4885 4.76473C31.3974 3.98787 31.3307 3.20938 31.2656 2.42927Z" fill="#9435F3"/>
<path d="M33.6016 2.38824C34.4717 2.42075 35.3419 2.47113 36.2088 2.55727C35.8754 3.36014 35.7209 4.40679 36.3031 5.13002C35.6135 5.06338 34.9223 5.00975 34.2326 4.94311C34.0586 4.91223 33.8829 4.88298 33.7089 4.85373C33.7479 4.03136 33.7073 3.20574 33.6016 2.38824Z" fill="#8B39F7"/>
<path d="M28.8242 2.65338C29.6358 2.55099 30.4507 2.47786 31.2672 2.43073C31.3322 3.21084 31.3989 3.98933 31.49 4.76619C32.2284 4.82957 32.9717 4.80032 33.7118 4.85558C33.8858 4.88483 34.0615 4.91408 34.2355 4.94496C33.6809 4.94171 33.1262 4.94821 32.5732 4.94984C31.6364 4.95959 30.7012 4.9921 29.7708 5.10261C29.5659 5.12862 29.361 5.15462 29.156 5.18225C29.0536 4.33875 28.9397 3.49525 28.8242 2.65338Z" fill="#9F31EF"/>
<path d="M26.0273 3.15377C26.9512 2.94737 27.8864 2.78159 28.8249 2.6532C28.9404 3.49507 29.0542 4.33857 29.1567 5.18206C28.4264 5.28283 27.6977 5.39497 26.9788 5.55099C26.3884 4.88302 26.2144 3.99564 26.0273 3.15377Z" fill="#A92CE9"/>
<path d="M36.305 5.12945C35.7227 4.40622 35.8772 3.35957 36.2107 2.5567C37.0141 2.65097 37.816 2.76311 38.6113 2.91263C38.4926 3.75775 38.4292 4.611 38.4454 5.46425C37.733 5.34723 37.0223 5.22046 36.305 5.12945Z" fill="#823EFA"/>
<path d="M38.6137 2.91333C40.1133 3.19612 41.5902 3.59105 43.0312 4.0965C42.771 4.91074 42.5335 5.73311 42.3969 6.57661C42.0976 6.47422 41.7951 6.37508 41.4942 6.27919C40.4939 5.95577 39.4806 5.6681 38.4478 5.46495C38.4316 4.6117 38.495 3.75845 38.6137 2.91333Z" fill="#7643FE"/>
<path d="M23.9253 3.73233C24.6035 3.47717 25.324 3.33902 26.0267 3.15375C26.2137 3.99562 26.3877 4.883 26.9782 5.55097C26.7309 5.60298 26.487 5.66148 26.243 5.72162C25.838 5.82401 25.4346 5.9329 25.0345 6.05154C24.5141 5.39982 23.8635 4.87401 23.6602 4.0614L23.9253 3.73233Z" fill="#B227E4"/>
<path d="M21.8125 4.45135C22.468 4.23357 23.2113 3.8565 23.9009 3.75574C24.2059 4.45135 24.5108 5.39886 25.0313 6.05058C24.262 6.29437 23.491 6.53815 22.7347 6.81932C22.4452 6.02295 22.1362 5.23309 21.8125 4.45135Z" fill="#BC22DF"/>
<path d="M43.0289 4.0943C44.7497 4.70376 46.4184 5.45787 48.0075 6.35663C47.5895 7.09936 47.1991 7.85834 46.8202 8.62058C45.6979 8.00299 44.5691 7.38865 43.372 6.92871C43.0467 6.80519 42.7215 6.68817 42.3945 6.57441C42.5312 5.73091 42.7686 4.90854 43.0289 4.0943Z" fill="#664AFF"/>
<path d="M19.7422 5.33993C20.4253 5.02626 21.1149 4.72559 21.8143 4.45093C22.138 5.23267 22.447 6.02253 22.7365 6.8189C22.2925 6.99117 21.855 7.17807 21.4175 7.36823C21.2158 7.45761 21.0157 7.54863 20.8173 7.64289C20.3017 6.96192 19.9764 6.1688 19.7471 5.35131L19.7422 5.33993Z" fill="#C41ED9"/>
<path d="M29.7695 5.10181C30.6999 4.99129 31.6351 4.95879 32.5719 4.94904C32.8371 6.45238 32.6988 7.97848 32.8045 9.49319C33.0095 11.3898 32.8989 13.3011 32.9119 15.2059C32.7753 15.2059 32.502 15.2075 32.3654 15.2091C31.827 15.2205 31.2903 15.2644 30.7584 15.3294C30.6917 15.3392 30.56 15.3554 30.4933 15.3635C30.978 14.7785 30.6332 14.0227 30.5551 13.3596C30.0542 10.6341 30.046 7.85333 29.7695 5.10181Z" fill="#E533F3"/>
<path d="M32.5742 4.94742C33.1272 4.9458 33.6818 4.9393 34.2365 4.94255C34.9261 5.00918 35.6174 5.06282 36.307 5.12945C36.4973 5.42037 36.6453 5.74704 36.6128 6.10459C36.5737 7.27476 36.4095 8.43843 36.359 9.61022C36.1915 11.2566 36.3086 12.9127 36.2777 14.5656C36.281 14.8841 36.1704 15.1848 36.0598 15.4773C35.6662 15.4042 35.2693 15.3359 34.8708 15.3002C34.2218 15.2287 33.568 15.2059 32.9142 15.2043C32.9011 13.2995 33.0117 11.3882 32.8068 9.49158C32.7011 7.97686 32.8393 6.45077 32.5742 4.94742Z" fill="#D539F8"/>
<path d="M26.9774 5.54891C27.6963 5.39288 28.4249 5.28074 29.1552 5.17998C29.3601 5.15235 29.5651 5.12635 29.77 5.10034C30.0465 7.85187 30.0546 10.6326 30.5556 13.3582C30.6337 14.0213 30.9785 14.777 30.4938 15.3621C30.0725 15.4157 29.6529 15.4823 29.2365 15.5652C28.9389 15.627 28.6445 15.6985 28.3517 15.7733C28.1858 14.933 27.9532 14.1074 27.6686 13.298C27.4051 12.5553 27.3921 11.7606 27.3157 10.9853C27.236 10.0931 26.8277 9.27395 26.709 8.38819C26.574 7.49431 26.4487 6.60043 26.2422 5.71956C26.4862 5.65942 26.7301 5.60091 26.9774 5.54891Z" fill="#F12CEE"/>
<path d="M36.3058 5.12976C37.0231 5.22077 37.7339 5.34754 38.4463 5.46456C38.4072 6.49171 38.2771 7.51398 38.2804 8.54275C38.282 9.79744 38.0169 11.0375 38.1047 12.2938C38.1746 13.5046 38.0152 14.7105 37.8721 15.9116C37.3679 15.7588 36.8556 15.6385 36.3416 15.5329C36.27 15.5199 36.1302 15.4923 36.0586 15.4776C36.1692 15.1851 36.2798 14.8844 36.2765 14.5659C36.3074 12.913 36.1903 11.2569 36.3579 9.61053C36.4083 8.43874 36.5726 7.27507 36.6116 6.1049C36.6441 5.74735 36.4961 5.42068 36.3058 5.12976Z" fill="#C73FFB"/>
<path d="M15.9609 7.48454C17.1694 6.68655 18.4316 5.96332 19.7474 5.35223C19.9767 6.16973 20.302 6.96284 20.8176 7.64382C19.6612 8.19965 18.5356 8.82049 17.4557 9.51609C17.3662 9.57459 17.2768 9.63473 17.1889 9.69486C16.7953 8.94888 16.3806 8.2159 15.9609 7.48454Z" fill="#D217D0"/>
<path d="M38.4452 5.46344C39.4781 5.66659 40.4913 5.95426 41.4916 6.27768C41.4933 6.87252 41.5193 7.46898 41.4412 8.06057C41.3599 8.66515 41.1094 9.23236 41.0395 9.8402C40.8638 12.1952 40.8297 14.5631 40.5288 16.9083C39.927 16.6174 39.2991 16.385 38.6681 16.1689C38.403 16.0778 38.1378 15.9917 37.8711 15.9105C38.0142 14.7094 38.1736 13.5035 38.1037 12.2927C38.0158 11.0364 38.281 9.79632 38.2793 8.54164C38.2761 7.51286 38.4062 6.49059 38.4452 5.46344Z" fill="#B943FD"/>
<path d="M25.0336 6.05185C25.4337 5.93321 25.8371 5.82431 26.2421 5.72192C26.4487 6.6028 26.5739 7.49668 26.7089 8.39056C26.8276 9.27631 27.2359 10.0954 27.3156 10.9877C27.392 11.7629 27.405 12.5577 27.6685 13.3004C27.9531 14.1098 28.1857 14.9354 28.3516 15.7756C28.0394 15.8585 27.7303 15.9544 27.4245 16.0535C26.9447 16.2144 26.4698 16.3916 26.003 16.5882C25.7769 16.1803 25.5931 15.7529 25.4402 15.3124C25.1589 14.4722 24.5847 13.7766 24.222 12.9737C23.752 11.958 23.0266 11.0803 22.6199 10.0353C22.2654 9.12679 21.8587 8.23941 21.418 7.36991C21.8555 7.17976 22.293 6.99286 22.737 6.82058C23.4933 6.53942 24.2643 6.29563 25.0336 6.05185Z" fill="#FF23E7"/>
<path d="M61.5 6.10611C62.6613 6.09148 63.8226 6.08823 64.9839 6.06873C65.7776 7.44692 66.3014 8.96327 66.638 10.5137C65.467 10.5089 64.2975 10.5186 63.1265 10.5056C62.915 8.94052 62.349 7.43717 61.5 6.10611Z" fill="#8A40F1"/>
<path d="M41.4902 6.27808C41.7911 6.37397 42.0936 6.4731 42.3929 6.57549C42.7198 6.68926 43.0451 6.80628 43.3704 6.9298C43.2745 8.12597 42.9557 9.29451 42.998 10.5037C42.7101 12.0135 42.7182 13.564 42.3669 15.0657C42.1994 15.9352 42.1099 16.8177 41.97 17.6921C41.6024 17.4727 41.2251 17.2679 40.8461 17.0696C40.7388 17.0144 40.6331 16.9607 40.5273 16.9087C40.8282 14.5635 40.8624 12.1956 41.0381 9.84059C41.108 9.23275 41.3585 8.66555 41.4398 8.06096C41.5179 7.46937 41.4918 6.87291 41.4902 6.27808Z" fill="#AC48FF"/>
<path d="M46.8203 8.62052C47.1993 7.85828 47.5896 7.0993 48.0076 6.35657C49.1722 7.02941 50.3042 7.76402 51.3744 8.57989C50.9109 9.26899 50.4766 9.98084 50.1204 10.7301L50.0814 10.8325C49.2682 10.1661 48.4208 9.54365 47.5116 9.01545C47.2822 8.88056 47.0513 8.75054 46.8203 8.62052Z" fill="#5750FF"/>
<path d="M43.3731 6.93237C44.5701 7.39231 45.6989 8.00665 46.8212 8.62424C47.0521 8.75426 47.2831 8.88428 47.5124 9.01918C47.3904 9.8773 47.3107 10.7403 47.2831 11.6065C47.2359 12.9896 46.8098 14.3239 46.7333 15.7054C46.6992 16.6708 46.1364 17.5094 46.0421 18.4618C45.9657 19.2029 45.8811 19.9424 45.7266 20.6721C45.5184 20.4527 45.3069 20.2382 45.0922 20.0285C44.4091 19.3719 43.6512 18.8031 42.8672 18.2765C42.5712 18.0782 42.2752 17.88 41.9727 17.6947C42.1125 16.8203 42.202 15.9378 42.3695 15.0683C42.7208 13.5666 42.7127 12.0161 43.0006 10.5063C42.9583 9.29709 43.2771 8.12855 43.3731 6.93237Z" fill="#994DFF"/>
<path d="M20.815 7.64051C21.0135 7.54624 21.2135 7.45523 21.4152 7.36584C21.856 8.23535 22.2626 9.12272 22.6172 10.0312C23.0238 11.0763 23.7492 11.9539 24.2193 12.9697C24.582 13.7725 25.1561 14.4681 25.4375 15.3084C25.5904 15.7488 25.7742 16.1762 26.0003 16.5842C25.8425 16.6508 25.688 16.7191 25.5335 16.7906C24.9805 17.0457 24.4405 17.3334 23.9135 17.639C23.7069 17.7592 23.5036 17.8844 23.3036 18.0128C22.8384 17.2229 22.2154 16.5435 21.747 15.7553C21.3339 15.0613 20.6215 14.5916 20.2816 13.8489C19.8164 12.8754 19.5318 11.767 18.7088 11.0112C18.2224 10.5724 17.7443 10.1125 17.4531 9.51278C18.5331 8.81718 19.6586 8.19634 20.815 7.64051Z" fill="#FF19E0"/>
<path d="M12.8828 9.83294C13.8489 8.97644 14.8931 8.20933 15.9617 7.48285C16.3814 8.2142 16.7961 8.94718 17.1897 9.69317C16.2317 10.3709 15.2786 11.0616 14.4036 11.845C13.8424 11.216 13.3399 10.5399 12.8828 9.83294Z" fill="#E20EC4"/>
<path d="M50.1172 10.7314C50.4734 9.98219 50.9077 9.27034 51.3712 8.58124C52.9668 9.79854 54.4631 11.1524 55.7855 12.6622C55.104 13.2083 54.5916 13.9218 54.1769 14.684C53.8906 14.3703 53.5995 14.0632 53.31 13.756C52.3113 12.6801 51.2248 11.6919 50.1172 10.7314Z" fill="#4A54FF"/>
<path d="M47.5124 9.01965C48.4216 9.54785 49.269 10.1703 50.0823 10.8367C49.8659 11.9256 49.9164 13.0486 49.6903 14.1359C49.5325 14.8689 49.4349 15.6132 49.352 16.3576C49.256 17.362 48.7225 18.2624 48.6428 19.27C48.5176 20.6758 48.1939 22.0524 47.8979 23.429C47.7548 23.1998 47.6068 22.9755 47.4571 22.7529C46.9464 22.0053 46.3397 21.3324 45.7266 20.6726C45.8811 19.9429 45.9656 19.2034 46.0421 18.4623C46.1364 17.5099 46.6992 16.6713 46.7333 15.7059C46.8098 14.3244 47.2359 12.9901 47.2831 11.607C47.3107 10.7408 47.3904 9.87778 47.5124 9.01965Z" fill="#8452FF"/>
<path d="M17.1887 9.69403C17.2765 9.6339 17.366 9.57377 17.4554 9.51526C17.7466 10.115 18.2247 10.5749 18.7111 11.0137C19.5341 11.7695 19.8187 12.8779 20.2839 13.8514C20.6238 14.5941 21.3362 15.0638 21.7493 15.7578C22.2177 16.546 22.8407 17.2254 23.3058 18.0152C23.0814 18.1599 22.8618 18.3127 22.6439 18.4703C22.1755 18.8067 21.7217 19.1659 21.2825 19.5413C20.8629 19.9021 20.4481 20.2678 20.0708 20.6725C19.4804 19.816 18.5435 19.2569 18.054 18.3273C17.7596 17.7568 17.0748 17.5813 16.7056 17.0726C16.1884 16.3819 15.3508 16.0715 14.7685 15.4539C14.1114 14.7696 13.3502 14.1846 12.7891 13.4142C13.3258 12.8909 13.856 12.3594 14.4025 11.8458C15.2776 11.0625 16.2307 10.3718 17.1887 9.69403Z" fill="#FF0ED6"/>
<path d="M9.85156 12.845C10.7721 11.7577 11.7968 10.7614 12.8801 9.83667C13.3371 10.5436 13.8397 11.2197 14.4008 11.8487C13.8543 12.3623 13.3241 12.8937 12.7874 13.4171C12.3677 13.8347 11.9595 14.2622 11.5773 14.7124C11.0779 14.0249 10.5282 13.3667 9.85156 12.845Z" fill="#F306B8"/>
<path d="M63.1289 10.5049C64.3 10.5179 65.4694 10.5081 66.6405 10.513C66.9251 12.0017 67.0227 13.5311 66.9967 15.0442C65.715 15.0734 64.435 15.049 63.1549 15.0377C63.3306 13.5327 63.3403 12.0066 63.1289 10.5049Z" fill="#8345F3"/>
<path d="M50.0828 10.8363L50.1218 10.7339C51.2295 11.6944 52.3159 12.6825 53.3146 13.7584C53.2251 14.6995 52.6721 15.5267 52.6608 16.4823C52.6168 17.7435 52.2167 18.9592 52.1712 20.2204C52.1387 21.1338 51.5694 21.9253 51.5564 22.8419C51.5222 23.6789 51.5076 24.5159 51.4279 25.3496C51.2457 25.361 51.0652 25.3708 50.8846 25.3805C50.5463 25.3838 50.2097 25.3903 49.873 25.3886C49.59 25.3854 49.3086 25.3821 49.0272 25.3773C48.6255 24.7434 48.2823 24.0738 47.8984 23.4286C48.1945 22.052 48.5181 20.6754 48.6434 19.2696C48.7231 18.262 49.2565 17.3616 49.3525 16.3572C49.4355 15.6128 49.533 14.8685 49.6908 14.1355C49.9169 13.0482 49.8665 11.9252 50.0828 10.8363Z" fill="#7155FF"/>
<path d="M54.1797 14.6859C54.5944 13.9237 55.1068 13.2102 55.7883 12.6641C57.309 14.3771 58.6362 16.2591 59.7455 18.2631C59.0526 18.8546 58.3841 19.482 57.8555 20.228C57.2976 19.1569 56.7577 18.0697 56.0225 17.1075C55.437 16.2786 54.8661 15.4351 54.1797 14.6859Z" fill="#3858FF"/>
<path d="M9.85068 12.8416C10.5273 13.3633 11.077 14.0215 11.5764 14.709C11.0592 15.338 10.5696 15.9881 10.08 16.6365C9.52051 15.8483 8.53161 15.7475 7.64844 15.6565C8.33156 14.6798 9.05534 13.729 9.85068 12.8416Z" fill="#FF03AC"/>
<path d="M11.5783 14.7119C11.9605 14.2617 12.3687 13.8343 12.7884 13.4166C13.3495 14.1869 14.1107 14.772 14.7678 15.4562C15.3501 16.0738 16.1877 16.3842 16.7049 17.075C17.0741 17.5837 17.7589 17.7592 18.0533 18.3297C18.5428 19.2593 19.4797 19.8184 20.0701 20.6749L19.9595 20.7935C19.2406 21.6305 18.4631 22.4334 17.9118 23.3955C17.8711 23.4654 17.7882 23.6084 17.7475 23.6783C16.7781 23.3386 15.773 23.1355 14.7727 22.9128C13.3511 22.357 11.8141 22.2806 10.3259 22.0206C9.24916 22.0417 8.18382 21.8337 7.10547 21.9068C7.1933 21.7069 7.28601 21.5102 7.37872 21.3152C7.76582 20.5107 8.15617 19.7079 8.60508 18.9359C9.06862 18.1525 9.5403 17.3724 10.0819 16.6394C10.5715 15.9909 11.0611 15.3408 11.5783 14.7119Z" fill="#FF03C8"/>
<path d="M53.3125 13.7552C53.602 14.0624 53.8931 14.3695 54.1794 14.6832C54.8658 15.4324 55.4367 16.2759 56.0222 17.1048C55.9685 17.7224 55.9588 18.3432 55.9181 18.9624C55.8791 19.8124 55.3163 20.5357 55.2903 21.3922C55.2285 22.6729 55.1163 23.9633 54.7438 25.1968C53.641 25.3171 52.5302 25.2879 51.4258 25.3464C51.5055 24.5126 51.5201 23.6756 51.5543 22.8386C51.5673 21.922 52.1366 21.1305 52.1691 20.2171C52.2146 18.9559 52.6147 17.7403 52.6586 16.4791C52.67 15.5234 53.223 14.6962 53.3125 13.7552Z" fill="#5B58FF"/>
<path d="M63.1544 15.0392C64.4344 15.0506 65.7144 15.075 66.9961 15.0457C66.9571 16.4044 66.8302 17.7599 66.5895 19.0975C65.22 19.1072 63.6976 19.1674 62.3281 19.1154C62.3891 18.8716 62.4745 18.6586 62.5233 18.449C62.7917 17.3243 62.9706 16.1818 63.1544 15.0392Z" fill="#7C4BF4"/>
<path d="M30.7578 15.3313C31.2893 15.2663 31.8256 15.2224 32.3635 15.211C32.4123 16.061 32.5179 16.9077 32.6983 17.7415C32.2075 17.7512 31.7183 17.7837 31.2308 17.8341C31.0471 17.0053 30.896 16.1699 30.7578 15.3313Z" fill="#9F32EA"/>
<path d="M32.3633 15.2069C32.4999 15.2053 32.7732 15.2037 32.9098 15.2037C33.5636 15.2053 34.2175 15.2281 34.8664 15.2996C34.668 15.3483 34.4696 15.3987 34.2744 15.454C34.3183 16.2373 34.3655 17.0223 34.3769 17.8073C33.8174 17.7553 33.2578 17.7325 32.6983 17.7374C32.5178 16.9037 32.4121 16.0569 32.3633 15.2069Z" fill="#9436EF"/>
<path d="M29.2362 15.5652C29.6525 15.4823 30.0722 15.4157 30.4934 15.3621C30.5601 15.3539 30.6919 15.3377 30.7585 15.3279C30.8968 16.1666 31.0481 17.0019 31.2319 17.8308C30.7114 17.8861 30.1942 17.9689 29.6835 18.0746C29.433 17.2603 29.1581 16.4298 29.2362 15.5652Z" fill="#AA2CE4"/>
<path d="M34.2773 15.457C34.4725 15.4018 34.671 15.3514 34.8694 15.3026C35.2679 15.3384 35.6647 15.4066 36.0583 15.4798C36.1299 15.4944 36.2698 15.522 36.3413 15.535C36.2503 16.3801 36.1657 17.2253 36.0844 18.0704C35.52 17.9566 34.9507 17.8672 34.3798 17.8104C34.3684 17.0254 34.3213 16.2404 34.2773 15.457Z" fill="#893BF4"/>
<path d="M28.3529 15.7757C28.6456 15.7009 28.94 15.6294 29.2377 15.5676C29.1596 16.4323 29.4345 17.2627 29.685 18.077C29.1808 18.1859 28.683 18.3191 28.1918 18.4752C27.9251 17.6723 27.4372 16.9231 27.4258 16.0536C27.7316 15.9544 28.0406 15.8585 28.3529 15.7757Z" fill="#B527DE"/>
<path d="M36.3429 15.5308C36.8569 15.6365 37.3692 15.7567 37.8734 15.9095C38.1402 15.9908 38.4053 16.0769 38.6704 16.1679C38.5338 17.0049 38.3337 17.8305 38.0946 18.6448C37.4375 18.4107 36.7674 18.2125 36.0859 18.0662C36.1673 17.2211 36.2518 16.3759 36.3429 15.5308Z" fill="#7C41F8"/>
<path d="M7.64973 15.66C8.5329 15.751 9.5218 15.8518 10.0813 16.6401C9.53969 17.373 9.06801 18.1531 8.60447 18.9365C8.27104 18.6375 7.95713 18.2978 7.54401 18.1109C7.12275 17.9581 6.66571 17.9727 6.22656 17.9354C6.66734 17.1569 7.14715 16.3995 7.64973 15.66Z" fill="#FF01A2"/>
<path d="M26.002 16.5873C26.4688 16.3907 26.9437 16.2135 27.4235 16.0526C27.4349 16.9221 27.9228 17.6713 28.1896 18.4742C27.6398 18.653 27.1047 18.874 26.5777 19.1113C26.2622 18.3247 25.919 17.5495 25.5352 16.7937C25.6897 16.7222 25.8442 16.6539 26.002 16.5873Z" fill="#C121D7"/>
<path d="M38.6695 16.1696C39.3006 16.3857 39.9284 16.6181 40.5302 16.909C40.6359 16.961 40.7417 17.0147 40.849 17.0699C40.483 17.8435 40.2065 18.6545 39.9837 19.4802C39.3722 19.1616 38.7427 18.8804 38.0938 18.6464C38.3328 17.8322 38.5329 17.0066 38.6695 16.1696Z" fill="#7046FC"/>
<path d="M23.918 17.6387C24.4449 17.3332 24.9849 17.0455 25.5379 16.7903C25.9218 17.5461 26.265 18.3213 26.5805 19.1079C26.1397 19.3078 25.7055 19.524 25.2858 19.7661C24.7865 19.0868 24.3213 18.3814 23.918 17.6387Z" fill="#CC1BCF"/>
<path d="M39.9844 19.4844C40.2072 18.6588 40.4837 17.8478 40.8497 17.0742C41.2286 17.2724 41.606 17.4772 41.9736 17.6966C42.2761 17.8819 42.5721 18.0802 42.8681 18.2785C42.5168 19.0602 42.1622 19.8403 41.8158 20.6237C41.2303 20.206 40.622 19.8176 39.9844 19.4844Z" fill="#644BFF"/>
<path d="M56.0225 17.1069C56.7576 18.069 57.2976 19.1563 57.8555 20.2273C58.4248 21.1082 57.8506 22.0703 57.8327 23.0049C57.8067 23.759 57.7628 24.5163 57.5627 25.2477C56.3949 25.3972 55.2157 25.3761 54.0431 25.4476C52.9891 25.4866 51.9319 25.5077 50.8828 25.3793C51.0634 25.3696 51.2439 25.3598 51.4261 25.3484C52.5304 25.2899 53.6413 25.3192 54.7441 25.1989C55.1165 23.9654 55.2288 22.6749 55.2906 21.3942C55.3166 20.5377 55.8793 19.8145 55.9184 18.9645C55.959 18.3453 55.9688 17.7245 56.0225 17.1069Z" fill="#485BFF"/>
<path d="M23.3065 18.0147C23.5066 17.8863 23.7099 17.7612 23.9164 17.6409C24.3198 18.3837 24.785 19.089 25.2843 19.7684C24.8386 20.03 24.4044 20.3079 23.9847 20.6086C23.5554 19.8838 23.1113 19.1703 22.6445 18.4698C22.8625 18.3122 23.082 18.1594 23.3065 18.0147Z" fill="#D717C7"/>
<path d="M4.92188 20.5187C5.32036 19.6378 5.75626 18.7764 6.22793 17.9329C6.66708 17.9703 7.12412 17.9557 7.54538 18.1084C7.9585 18.2954 8.27241 18.635 8.60584 18.9341C8.15693 19.7061 7.76658 20.5089 7.37948 21.3134C6.60202 20.9347 5.80342 20.5593 4.92188 20.5187Z" fill="#FF0098"/>
<path d="M42.8648 18.2723C43.6488 18.7989 44.4067 19.3677 45.0898 20.0243C44.6426 20.7801 44.205 21.5407 43.761 22.298C43.1592 21.6853 42.5135 21.1149 41.8125 20.6176C42.1589 19.8342 42.5135 19.0541 42.8648 18.2723Z" fill="#594FFF"/>
<path d="M57.8563 20.2233C58.3849 19.4774 59.0534 18.85 59.7463 18.2584C60.3676 19.4708 61.0458 20.6817 61.4248 21.9932C61.3451 22.224 61.2573 22.4532 61.1694 22.6823C60.4782 24.4733 59.6926 26.227 58.7801 27.9172C56.9943 27.9221 55.21 27.9156 53.4258 27.9221C53.9284 27.194 53.943 26.2903 54.0438 25.4436C55.2165 25.3721 56.3957 25.3932 57.5635 25.2437C57.7636 24.5123 57.8075 23.755 57.8335 23.0009C57.8514 22.0663 58.4256 21.1042 57.8563 20.2233Z" fill="#2E5CFF"/>
<path d="M21.2812 19.5446C21.7204 19.1692 22.1742 18.81 22.6426 18.4736C23.1094 19.174 23.5534 19.8875 23.9828 20.6124C23.5892 20.8968 23.2086 21.1975 22.8443 21.5176C22.2978 20.8805 21.7855 20.2158 21.2812 19.5446Z" fill="#E010BF"/>
<path d="M62.3277 19.113C62.3748 19.1048 62.435 19.0934 62.4822 19.0837C63.8517 19.1357 65.2195 19.1048 66.589 19.0951C66.3662 20.3042 66.0962 21.5037 65.7709 22.6901C64.2371 22.7177 62.7017 22.7193 61.168 22.6852C61.2558 22.456 61.3436 22.2269 61.4233 21.9961C61.7519 21.0502 62.0837 20.0881 62.3277 19.113Z" fill="#764FF5"/>
<path d="M20.0715 20.6688C20.4489 20.2641 20.8636 19.8984 21.2833 19.5376C21.7875 20.2088 22.2998 20.8735 22.8463 21.5106C22.412 21.9007 22.0005 22.3135 21.6004 22.7377C21.0669 22.0762 20.4928 21.4489 19.9609 20.7874L20.0715 20.6688Z" fill="#EA0CB6"/>
<path d="M43.7617 22.2971C44.2057 21.5398 44.6433 20.7792 45.0905 20.0234C45.3052 20.2331 45.5167 20.4476 45.7249 20.667C46.3381 21.3269 46.9447 21.9997 47.4554 22.7473C46.7951 23.4364 46.3673 24.2962 45.9867 25.1608C45.3557 24.1288 44.6205 23.152 43.7617 22.2971Z" fill="#4D53FF"/>
<path d="M4.92372 20.5175C5.80527 20.5581 6.60387 20.9335 7.38132 21.3122C7.28861 21.5072 7.1959 21.7039 7.10807 21.9038C6.80718 22.5685 6.55345 23.2544 6.31435 23.9435C5.5613 23.4916 4.67324 23.4494 3.82422 23.3502C4.14789 22.3897 4.51873 21.4471 4.92372 20.5175Z" fill="#FF008E"/>
<path d="M17.9141 23.3926C18.4654 22.4304 19.2429 21.6276 19.9618 20.7906C20.4937 21.4521 21.0678 22.0794 21.6013 22.7409C21.0027 23.3893 20.4758 24.0996 20.0008 24.8423C19.3567 24.2865 18.659 23.8005 17.9141 23.3926Z" fill="#F806AA"/>
<path d="M7.10562 21.9023C8.18397 21.8291 9.24931 22.0371 10.326 22.016C11.8143 22.2761 13.3513 22.3524 14.7728 22.9083C15.7731 23.1309 16.7783 23.3341 17.7476 23.6738C17.0418 24.9008 16.3538 26.1555 15.9439 27.5174C15.8707 27.7482 15.8024 27.979 15.7406 28.213C14.7696 27.9481 13.7677 28.0993 12.7804 28.1415C12.0029 28.1887 11.2613 28.4942 10.474 28.4731C9.64455 28.4585 8.84107 28.6746 8.05711 28.9249C7.00315 29.2256 6.04841 29.8041 4.97656 30.0528C5.1262 28.9867 5.24656 27.9156 5.50517 26.869C5.71986 25.8792 5.9801 24.8976 6.3119 23.9419C6.55099 23.2528 6.80472 22.567 7.10562 21.9023Z" fill="#FF00B9"/>
<path d="M61.169 22.6881C62.7027 22.7222 64.2381 22.7206 65.7719 22.693C65.2042 24.7635 64.4398 26.7723 63.5859 28.7389H63.5599C61.8342 28.695 60.1069 28.7681 58.3828 28.6641C58.5146 28.4171 58.6479 28.17 58.7797 27.923C59.6921 26.2327 60.4777 24.4791 61.169 22.6881Z" fill="#6C55F6"/>
<path d="M45.9883 25.1646C46.3689 24.2999 46.7966 23.4402 47.457 22.7511C47.6066 22.9738 47.7546 23.198 47.8978 23.4272C48.2816 24.0724 48.6248 24.742 49.0265 25.3759C49.3079 25.3807 49.5893 25.384 49.8723 25.3872C49.2965 26.1901 48.7679 27.0271 48.3515 27.9242C47.984 27.9226 47.618 27.9161 47.2537 27.9047C46.9446 26.9442 46.5022 26.0324 45.9883 25.1646Z" fill="#4056FF"/>
<path d="M3.81913 23.3506C4.66815 23.4497 5.55621 23.492 6.30927 23.9438C5.97747 24.8994 5.71723 25.8811 5.50253 26.8708C4.99507 26.0566 3.86955 26.2565 3.05469 26.0712C3.26613 25.153 3.52474 24.2461 3.81913 23.3506Z" fill="#FF0084"/>
<path d="M17.7491 23.6776C17.7897 23.6077 17.8727 23.4647 17.9133 23.3948C18.6583 23.8027 19.356 24.2887 20.0001 24.8445C19.3024 25.9448 18.7607 27.1426 18.3525 28.3777C17.5783 28.0186 16.7699 27.739 15.9453 27.5212C16.3552 26.1593 17.0432 24.9046 17.7491 23.6776Z" fill="#FF0395"/>
<path d="M49.8723 25.3871C50.209 25.3887 50.5457 25.3822 50.884 25.379C51.9331 25.5074 52.9903 25.4862 54.0442 25.4472C53.9434 26.294 53.9287 27.1976 53.4262 27.9257C51.7346 27.9241 50.0431 27.9192 48.3516 27.9241C48.7679 27.027 49.2965 26.19 49.8723 25.3871Z" fill="#375AFF"/>
<path d="M3.05947 26.0725C3.87433 26.2578 4.99985 26.0579 5.50731 26.8721C5.2487 27.9188 5.12834 28.9898 4.97871 30.056C4.97383 30.0901 4.9657 30.1584 4.96244 30.1925C4.12318 30.0641 3.28229 29.9552 2.44141 29.8479C2.56664 28.577 2.77971 27.3174 3.05947 26.0725Z" fill="#FF0079"/>
<path d="M15.944 27.5186C16.7686 27.7363 17.577 28.0159 18.3512 28.3751C18.143 29.0349 17.9819 29.711 17.8648 30.392C17.05 30.1514 16.2351 29.9174 15.4219 29.6704C15.513 29.1812 15.6154 28.6952 15.7407 28.2142C15.8025 27.9801 15.8708 27.7493 15.944 27.5186Z" fill="#FF0283"/>
<path d="M12.7787 28.1461C13.7659 28.1039 14.7678 27.9527 15.7388 28.2176C15.6136 28.6987 15.5111 29.1846 15.4201 29.6738C15.3095 30.3061 15.207 30.9415 15.1322 31.5802C15.0492 32.1816 14.9646 32.7813 14.9045 33.3859C13.9953 33.9125 12.9657 34.1855 12.0728 34.743C11.3278 35.2013 10.5244 35.5507 9.7957 36.035C8.98246 36.5681 7.96104 36.8216 7.35924 37.6375C6.88268 38.3136 6.23534 38.8304 5.53596 39.2611C5.35054 38.3997 5.17814 37.5367 5.06916 36.664C4.93091 35.5328 4.82844 34.3968 4.82031 33.2575C4.82844 32.2352 4.84471 31.2097 4.95856 30.1939C4.96181 30.1598 4.96995 30.0915 4.97483 30.0574C6.04667 29.8087 7.00142 29.2302 8.05537 28.9295C8.83933 28.6792 9.64281 28.463 10.4723 28.4777C11.2595 28.4988 12.0012 28.1933 12.7787 28.1461Z" fill="#FF00A9"/>
<path d="M55.4258 33.5197C56.4797 31.9433 57.4735 30.3245 58.3811 28.6603C60.1051 28.7643 61.8325 28.6912 63.5582 28.735C62.8409 30.4188 62.0016 32.0489 61.1071 33.6449C59.2155 33.5262 57.3174 33.6888 55.4258 33.5197Z" fill="#615DF7"/>
<path d="M15.4243 29.6729C16.2376 29.9199 17.0524 30.1539 17.8673 30.3945C17.7388 31.1778 17.6656 31.9709 17.651 32.7641C16.8133 32.6584 15.9692 32.6162 15.1251 32.6097C15.1251 32.2651 15.1234 31.9222 15.1364 31.5793C15.2113 30.9405 15.3137 30.3051 15.4243 29.6729Z" fill="#FF0275"/>
<path d="M2.31039 33.1325C2.29087 32.0338 2.31852 30.9368 2.43888 29.8463C3.27977 29.9535 4.12066 30.0624 4.95992 30.1908C4.84607 31.2066 4.8298 32.2321 4.82167 33.2544C3.98241 33.2869 3.14152 33.2479 2.31039 33.1325Z" fill="#FF006D"/>
<path d="M14.9076 33.385C14.9677 32.7804 15.0523 32.1807 15.1353 31.5793C15.1223 31.9223 15.1239 32.2652 15.1239 32.6097C15.1092 33.8449 15.171 35.085 15.3922 36.3023C15.4394 36.5298 15.4915 36.7573 15.5468 36.9833C14.4944 37.674 13.2437 38.1209 12.4158 39.1074C11.5668 40.1541 10.2867 40.6774 9.23116 41.4738C8.32196 42.0134 7.58192 42.7691 6.88416 43.5524C6.83536 43.4273 6.7394 43.1786 6.69223 43.0535C6.32628 42.0735 5.98309 41.0821 5.72611 40.0679C5.65942 39.7998 5.59762 39.5284 5.53906 39.2602C6.23845 38.8295 6.88578 38.3127 7.36234 37.6366C7.96414 36.8207 8.98556 36.5672 9.7988 36.0341C10.5275 35.5498 11.3309 35.2004 12.0759 34.7421C12.9688 34.1846 13.9984 33.9116 14.9076 33.385Z" fill="#FF059A"/>
<path d="M15.1231 32.6082C15.9673 32.6147 16.8114 32.657 17.649 32.7626C17.636 33.6289 17.7043 34.4951 17.8312 35.3532C17.0229 35.636 15.9152 35.5109 15.3915 36.3007C15.1703 35.0834 15.1085 33.8434 15.1231 32.6082Z" fill="#FF0566"/>
<path d="M2.31114 33.1317C3.14227 33.247 3.98316 33.2861 4.82242 33.2535C4.83055 34.3928 4.93302 35.5289 5.07127 36.66C4.21412 36.6519 3.35534 36.6552 2.49819 36.6682C2.36319 35.4947 2.28024 34.3132 2.31114 33.1317Z" fill="#FF0062"/>
<path d="M52.1608 38.0164C53.3042 36.5586 54.4037 35.0666 55.4284 33.5226C57.32 33.6917 59.2181 33.5291 61.1097 33.6478C59.7564 35.9865 58.291 38.2651 56.6938 40.4478C54.5517 40.3031 52.4031 40.4218 50.2578 40.3698C50.8986 39.5913 51.5476 38.8177 52.1608 38.0164Z" fill="#5564F9"/>
<path d="M15.3906 36.2989C15.9144 35.509 17.022 35.6342 17.8303 35.3514C17.9409 36.0551 18.0987 36.7507 18.3069 37.4333C17.5603 37.8689 16.6788 38.0866 16.0624 38.7221C15.8737 38.1468 15.6931 37.5682 15.5451 36.9799C15.4898 36.754 15.4378 36.5264 15.3906 36.2989Z" fill="#FF0C58"/>
<path d="M2.5 36.6685C3.35715 36.6555 4.21593 36.6522 5.07308 36.6604C5.18206 37.5331 5.35446 38.3961 5.53988 39.2575C5.59844 39.5257 5.66024 39.7971 5.72693 40.0652C4.87953 40.1725 4.03052 40.2782 3.18312 40.3854C2.87734 39.1632 2.65614 37.9199 2.5 36.6685Z" fill="#FF0158"/>
<path d="M15.5454 36.9798C15.6934 37.5681 15.874 38.1467 16.0626 38.722C16.2562 39.299 16.4693 39.8695 16.7262 40.422C16.8238 40.6284 16.9263 40.8349 17.032 41.0396C15.739 42.3788 14.3841 43.6563 13.1643 45.0621C12.5039 45.7593 11.7525 46.3769 11.2044 47.1733C10.7831 47.7925 10.313 48.3776 9.78282 48.9074C9.46728 48.441 9.15663 47.9713 8.86549 47.4902C8.45399 46.806 8.06363 46.1087 7.70906 45.3936C7.41304 44.7874 7.13004 44.1747 6.88281 43.549C7.58057 42.7656 8.32062 42.0099 9.22982 41.4703C10.2854 40.674 11.5654 40.1506 12.4145 39.104C13.2423 38.1175 14.4931 37.6705 15.5454 36.9798Z" fill="#FF158F"/>
<path d="M16.0625 38.725C16.6789 38.0896 17.5605 37.8718 18.307 37.4362C18.4957 38.0554 18.7299 38.6584 18.9983 39.2467C18.2469 39.6498 17.4775 40.022 16.7261 40.425C16.4691 39.8724 16.2561 39.302 16.0625 38.725Z" fill="#FF164D"/>
<path d="M47.0437 38.6084C47.1543 38.3809 47.2242 38.0071 47.5495 38.0233C49.0849 37.999 50.6219 38.0347 52.1573 38.012C51.5442 38.8132 50.8952 39.5868 50.2544 40.3653C49.5078 41.2494 48.7401 42.1124 47.9578 42.9641C47.112 43.9132 46.2044 44.8038 45.3147 45.7107C44.8723 44.9631 44.3893 44.2415 43.8672 43.5491C45.2253 42.1222 46.3297 40.4466 47.0437 38.6084Z" fill="#FFD200"/>
<path d="M61.3681 38.0177C61.9422 38.0616 62.5456 37.9202 63.0986 38.125C62.6026 40.844 61.8267 43.5337 60.5906 46.0139C59.2781 48.923 57.4109 51.5608 55.2542 53.906C54.7353 52.1621 53.5024 50.7969 52.3281 49.461C55.6852 45.9342 58.712 42.097 61.3681 38.0177Z" fill="#FFDA00"/>
<path d="M18.9987 39.2437C19.2395 39.7784 19.5111 40.3001 19.812 40.8039C19.1272 41.3061 18.4246 41.7823 17.7122 42.2439C17.4731 41.849 17.2454 41.4475 17.0323 41.0396C16.9266 40.8348 16.8242 40.6284 16.7266 40.422C17.478 40.019 18.2473 39.6468 18.9987 39.2437Z" fill="#FF2044"/>
<path d="M3.17969 40.3875C4.02708 40.2802 4.8761 40.1746 5.72349 40.0673C5.98048 41.0815 6.32366 42.0729 6.68962 43.0529C5.8959 43.3584 5.13146 43.729 4.35075 44.0654C3.89371 42.8627 3.48709 41.6389 3.17969 40.3875Z" fill="#FF054D"/>
<path d="M47.9609 42.9679C48.7433 42.1163 49.511 41.2533 50.2575 40.3691C52.4028 40.4211 54.5514 40.3025 56.6935 40.4472C56.0299 41.341 55.35 42.2219 54.6571 43.093L54.6279 43.0898C52.4093 42.9029 50.1811 43.1158 47.9609 42.9679Z" fill="#4869FA"/>
<path d="M17.7109 42.245C18.4233 41.7834 19.126 41.3073 19.8107 40.8051C20.1165 41.3105 20.4467 41.8013 20.8077 42.2678C20.1474 42.822 19.5928 43.4818 19.0528 44.1498L18.9877 44.0685C18.5209 43.4899 18.0997 42.8772 17.7109 42.245Z" fill="#FF2A3B"/>
<path d="M17.0344 41.0398C17.2474 41.4477 17.4751 41.8492 17.7142 42.2441C18.103 42.8763 18.5242 43.489 18.991 44.0676C17.9436 45.4409 16.6879 46.6404 15.5445 47.934C15.0663 48.55 14.7736 49.3057 14.1669 49.8193C13.435 50.4515 12.7209 51.1179 12.2086 51.9467C12.1517 51.885 12.0395 51.7598 11.9825 51.6965C11.3905 51.0301 10.818 50.3459 10.2877 49.6292C10.1153 49.3919 9.94943 49.1497 9.78516 48.9076C10.3154 48.3777 10.7854 47.7926 11.2067 47.1734C11.7548 46.3771 12.5062 45.7595 13.1666 45.0623C14.3865 43.6564 15.7413 42.379 17.0344 41.0398Z" fill="#FF2882"/>
<path d="M19.0547 44.1519C19.5947 43.4839 20.1493 42.8241 20.8097 42.2699C21.2163 42.7835 21.6408 43.2873 22.1027 43.7521C21.5237 44.3681 20.8893 44.9288 20.2729 45.5057C19.8386 45.0799 19.4402 44.6216 19.0547 44.1519Z" fill="#FF3633"/>
<path d="M4.35547 44.0643C5.13618 43.7279 5.90062 43.3573 6.69434 43.0518C6.74151 43.1769 6.83747 43.4256 6.88626 43.5507C7.13349 44.1764 7.41649 44.7891 7.71251 45.3953C7.02939 45.9057 6.32513 46.3884 5.58671 46.8191C5.13455 45.9203 4.72143 45.002 4.35547 44.0643Z" fill="#FF0E44"/>
<path d="M45.3193 45.7125C46.209 44.8057 47.1166 43.915 47.9623 42.9659C50.1825 43.1138 52.4107 42.9009 54.6293 43.0878C53.7591 44.2189 52.8092 45.2883 51.8561 46.3512L51.8317 46.3496C49.4994 46.1871 47.1556 46.4293 44.8281 46.2017C44.9924 46.0376 45.155 45.8751 45.3193 45.7125Z" fill="#406DFB"/>
<path d="M41.543 45.5221C42.3774 44.9387 43.1646 44.2821 43.8721 43.5491C44.3942 44.2414 44.8772 44.963 45.3196 45.7106C45.1554 45.8732 44.9927 46.0357 44.8285 46.1998C44.1616 46.8499 43.5012 47.5098 42.7986 48.1241C42.3806 47.2562 42.0098 46.3656 41.543 45.5221Z" fill="#FFC200"/>
<path d="M20.2734 45.5006C20.8899 44.9237 21.5242 44.363 22.1032 43.747C23.0433 44.6685 24.0892 45.4844 25.2277 46.1459C24.634 46.7683 24.1949 47.5143 23.8989 48.3204C23.8452 48.2895 23.7411 48.2278 23.6874 48.1969C23.0108 47.7906 22.3748 47.3193 21.76 46.8252C21.2949 46.4433 20.8427 46.0435 20.4052 45.629L20.2734 45.5006Z" fill="#FF4924"/>
<path d="M18.9894 44.0692L19.0545 44.1505C19.44 44.6202 19.8385 45.0785 20.2727 45.5043L20.4045 45.6327C19.8141 46.4469 19.0561 47.123 18.4755 47.9438C17.9062 48.7271 17.3792 49.5414 16.7693 50.2939C15.8129 51.4234 15.2664 52.8731 14.071 53.7995C13.9913 53.7247 13.8319 53.5736 13.7506 53.4988C13.222 52.9966 12.6999 52.4863 12.207 51.9484C12.7194 51.1195 13.4334 50.4531 14.1653 49.8209C14.772 49.3073 15.0648 48.5516 15.5429 47.9356C16.6863 46.642 17.942 45.4425 18.9894 44.0692Z" fill="#FF3679"/>
<path d="M5.58594 46.8179C6.32436 46.3872 7.02862 45.9045 7.71174 45.3942C8.06631 46.1093 8.45667 46.8066 8.86817 47.4908C8.2436 48.0742 7.56048 48.5927 6.83344 49.0413C6.3943 48.3131 5.96979 47.5753 5.58594 46.8179Z" fill="#FF173E"/>
<path d="M20.4038 45.6346C20.8413 46.0491 21.2935 46.4489 21.7587 46.8308C20.7568 47.7848 20.2151 49.0753 19.4165 50.182C19.101 50.6387 18.9465 51.1751 18.7513 51.6886C18.4325 52.537 17.7754 53.1904 17.3639 53.99C17.0614 54.5734 16.8158 55.1845 16.5165 55.7696C16.2303 55.5632 15.9473 55.3535 15.6691 55.139C15.121 54.7116 14.581 54.2711 14.0703 53.8014C15.2658 52.8751 15.8123 51.4254 16.7686 50.2958C17.3786 49.5433 17.9055 48.7291 18.4748 47.9457C19.0555 47.125 19.8134 46.4489 20.4038 45.6346Z" fill="#FF4271"/>
<path d="M37.3008 47.5696C38.8069 47.1064 40.2414 46.4157 41.541 45.5251C42.0078 46.3686 42.3786 47.2592 42.7966 48.1271C41.8972 48.9576 40.9701 49.7572 40.0316 50.5438C39.9373 50.2139 39.8446 49.8856 39.7535 49.5573C39.098 49.7491 38.4442 49.9457 37.7855 50.1229C37.6765 49.2615 37.5155 48.4099 37.3008 47.5696Z" fill="#FFB400"/>
<path d="M0.414062 49.694C0.711477 48.337 1.03814 46.9734 1.57609 45.6895C1.44932 47.0173 1.2803 48.3402 1.22992 49.6745C0.956882 49.681 0.685473 49.6859 0.414062 49.694Z" fill="#3073FD"/>
<path d="M42.7975 48.129C43.5001 47.5147 44.1605 46.8548 44.8273 46.2047C47.1548 46.4322 49.4986 46.1901 51.8309 46.3526C51.5967 46.6208 51.369 46.8938 51.1218 47.1506C49.9101 48.3858 48.6853 49.6063 47.4606 50.8285C47.1971 51.0902 46.9157 51.3291 46.636 51.5696C44.0971 51.3811 41.5435 51.6476 39.0078 51.4038C39.3494 51.1178 39.6942 50.835 40.0325 50.5457C40.971 49.7591 41.8981 48.9595 42.7975 48.129Z" fill="#3073FD"/>
<path d="M23.8984 48.3204C24.1945 47.5143 24.6336 46.7683 25.2273 46.1458C25.5705 46.3425 25.9185 46.5294 26.2747 46.7016C25.951 47.485 25.6095 48.2602 25.2435 49.0241C24.7865 48.8047 24.3392 48.5674 23.8984 48.3204Z" fill="#FF5C16"/>
<path d="M26.2734 46.7061C26.7434 46.932 27.2249 47.1336 27.7144 47.3172C27.3306 48.0697 27.0037 48.8482 26.7223 49.6445C26.3352 49.4999 25.9513 49.3471 25.5756 49.1814C25.4927 49.144 25.3251 49.0676 25.2422 49.0286C25.6081 48.2647 25.9497 47.4895 26.2734 46.7061Z" fill="#FF660C"/>
<path d="M21.7578 46.8263C22.3726 47.3204 23.0085 47.7917 23.6851 48.198C22.8654 49.7241 21.9594 51.2047 21.2226 52.7747C20.9884 53.3646 20.8307 53.9855 20.5233 54.5462C20.0158 55.4839 19.6775 56.5094 19.0724 57.3968C18.5129 57.0653 17.9502 56.737 17.4069 56.3827C17.1044 56.1828 16.8084 55.9747 16.5156 55.7651C16.8149 55.18 17.0605 54.5689 17.363 53.9855C17.7745 53.1858 18.4316 52.5325 18.7504 51.6841C18.9456 51.1705 19.1001 50.6342 19.4156 50.1775C20.2142 49.0707 20.7558 47.7803 21.7578 46.8263Z" fill="#FF4F69"/>
<path d="M27.7148 47.3162C28.2971 47.5259 28.8908 47.703 29.4958 47.8379C29.3136 48.6652 29.1347 49.494 28.977 50.3262C28.9119 50.3115 28.7785 50.2807 28.7118 50.266C28.0352 50.1035 27.3765 49.8792 26.7227 49.6436C27.004 48.8472 27.331 48.0687 27.7148 47.3162Z" fill="#FF7200"/>
<path d="M6.83203 49.0401C7.55907 48.5915 8.24219 48.0731 8.86675 47.4896C9.15789 47.9707 9.46855 48.4404 9.78409 48.9068C9.94836 49.149 10.1143 49.3911 10.2867 49.6284C9.63933 50.1745 9.005 50.7368 8.39182 51.3219C7.84533 50.5808 7.3216 49.8202 6.83203 49.0401Z" fill="#FF2037"/>
<path d="M35.3125 48.02C35.9859 47.9159 36.6495 47.7599 37.3017 47.5698C37.5164 48.41 37.6774 49.2616 37.7864 50.123C37.3375 50.24 36.8902 50.3684 36.438 50.4724C36.129 50.5342 35.8167 50.583 35.5044 50.6187C35.3857 49.7573 35.3223 48.8895 35.3125 48.02Z" fill="#FFA300"/>
<path d="M29.4954 47.838C30.1314 47.9762 30.7738 48.0802 31.4212 48.1436C31.2764 48.9838 31.1528 49.8273 31.0715 50.6773C30.3672 50.6009 29.6694 50.4725 28.9766 50.3262C29.1343 49.4941 29.3132 48.6653 29.4954 47.838Z" fill="#FF7F00"/>
<path d="M33.4168 48.2033C34.0528 48.1821 34.6855 48.1204 35.3133 48.0212C35.3231 48.8907 35.3865 49.7586 35.5052 50.62C34.7343 50.7045 33.9617 50.7906 33.1875 50.8085C33.2591 49.9406 33.3371 49.0711 33.4168 48.2033Z" fill="#FF9700"/>
<path d="M23.6869 48.2004C23.7406 48.2313 23.8447 48.293 23.8983 48.3239C24.3391 48.5709 24.7864 48.8082 25.2434 49.0276C25.3264 49.0666 25.4939 49.143 25.5769 49.1804C25.1361 50.175 24.6579 51.1583 24.3603 52.2098C24.1049 53.12 23.56 53.905 23.2152 54.7777C22.6736 56.0681 22.4931 57.5276 21.6538 58.6766C20.8942 58.3565 20.1477 58.0087 19.4304 57.604C19.3101 57.5357 19.1913 57.4675 19.0742 57.3992C19.6793 56.5118 20.0176 55.4863 20.525 54.5485C20.8324 53.9878 20.9902 53.367 21.2244 52.777C21.9612 51.2071 22.8672 49.7265 23.6869 48.2004Z" fill="#FF5D60"/>
<path d="M31.4239 48.1456C32.0859 48.2041 32.7527 48.2203 33.4163 48.2041C33.3366 49.072 33.2586 49.9415 33.187 50.8093C32.9642 50.811 32.743 50.8077 32.5218 50.8012C32.0371 50.7784 31.554 50.7313 31.0742 50.6793C31.1555 49.8293 31.2792 48.9858 31.4239 48.1456Z" fill="#FF8C00"/>
<path d="M25.5767 49.1802C25.9524 49.3459 26.3362 49.4987 26.7233 49.6434C27.3772 49.879 28.0359 50.1033 28.7125 50.2658C28.4588 50.911 28.2343 51.5741 28.179 52.2697C28.0766 53.5082 27.6553 54.6897 27.2015 55.8371C26.9462 56.4742 27.0031 57.1747 26.9023 57.8427C26.8144 58.4066 26.6843 58.9641 26.5867 59.5264C25.9752 59.8352 25.3587 60.1375 24.726 60.3992C24.9277 60.2708 25.1261 60.1343 25.3262 59.9994C24.0673 59.6451 22.8361 59.2014 21.6211 58.7187L21.6536 58.6764C22.4929 57.5274 22.6734 56.0679 23.215 54.7775C23.5599 53.9047 24.1047 53.1197 24.3601 52.2096C24.6577 51.1581 25.1359 50.1748 25.5767 49.1802Z" fill="#FF6E54"/>
<path d="M37.7855 50.1204C38.4443 49.9432 39.0981 49.7466 39.7536 49.5548C39.8447 49.8831 39.9374 50.2114 40.0317 50.5413C39.6934 50.8306 39.3486 51.1134 39.007 51.3995C38.2686 52.0187 37.4993 52.6005 36.7348 53.1888C35.972 52.4624 36.403 51.3734 36.4372 50.4698C36.8893 50.3658 37.3366 50.2374 37.7855 50.1204Z" fill="#FFA91E"/>
<path d="M45.8008 55.609C48.0795 53.6717 50.2606 51.6206 52.3278 49.4607C53.5021 50.7966 54.735 52.1618 55.2539 53.9057C52.9752 56.3127 50.3208 58.3686 47.3996 59.9402C46.9556 58.4645 46.4058 57.0245 45.8008 55.609Z" fill="#FFCA00"/>
<path d="M0.411837 49.6913C0.683248 49.6831 0.954657 49.6783 1.22769 49.6718C1.17406 50.8679 1.22282 52.0657 1.36259 53.2554C0.909151 53.2391 0.457341 53.2229 0.00390625 53.2099C0.0494123 52.0283 0.185932 50.8517 0.411837 49.6913Z" fill="#2476FD"/>
<path d="M8.39453 51.326C9.00771 50.7409 9.64204 50.1786 10.2894 49.6325C10.8196 50.3492 11.3921 51.0335 11.9842 51.6998C11.436 52.3466 10.844 52.9529 10.2259 53.5314C9.5721 52.8342 8.97844 52.0834 8.39453 51.326Z" fill="#FF2A30"/>
<path d="M28.7117 50.2655C28.7784 50.2801 28.9118 50.311 28.9769 50.3256C29.6697 50.4719 30.3675 50.6003 31.0718 50.6767C31.5516 50.7287 32.0346 50.7758 32.5193 50.7986C32.3225 51.8306 32.2575 52.8789 32.1046 53.9158C31.9793 54.8292 31.4751 55.7068 31.7272 56.6478C30.0617 57.6896 28.3425 58.6468 26.5859 59.5261C26.6835 58.9638 26.8136 58.4063 26.9015 57.8423C27.0023 57.1744 26.9454 56.4739 27.2007 55.8368C27.6545 54.6894 28.0758 53.5078 28.1783 52.2694C28.2336 51.5738 28.458 50.9107 28.7117 50.2655Z" fill="#FF8245"/>
<path d="M35.5009 50.6195C35.8132 50.5838 36.1255 50.535 36.4345 50.4733C36.4004 51.3769 35.9694 52.4658 36.7322 53.1923C35.8636 53.8538 34.9658 54.4778 34.0729 55.1084C33.3003 55.6366 32.5163 56.1486 31.7259 56.6492C31.4738 55.7081 31.978 54.8305 32.1032 53.9171C32.2561 52.8802 32.3212 51.832 32.518 50.7999C32.7392 50.8064 32.9604 50.8097 33.1832 50.8081C33.9574 50.7902 34.73 50.704 35.5009 50.6195Z" fill="#FF9632"/>
<path d="M36.7335 53.1885C37.498 52.6002 38.2673 52.0183 39.0057 51.3991C41.5414 51.6429 44.0949 51.3764 46.6339 51.5649C45.2205 52.8537 43.7826 54.1441 42.2489 55.2785C40.8713 55.0608 39.479 55.168 38.0916 55.1485C36.753 55.1453 35.4128 55.1697 34.0742 55.1046C34.9672 54.4741 35.865 53.85 36.7335 53.1885Z" fill="#1878FE"/>
<path d="M10.2266 53.5268C10.8446 52.9482 11.4367 52.342 11.9848 51.6952C12.0417 51.7586 12.1539 51.8837 12.2109 51.9455C12.7037 52.4834 13.2258 52.9938 13.7544 53.496C13.1266 54.0615 12.5622 54.6937 12.0433 55.3617C11.4074 54.7815 10.8105 54.1607 10.2266 53.5268Z" fill="#FF3529"/>
<path d="M0.00341651 53.2099C0.456851 53.2229 0.908661 53.2392 1.3621 53.2554C1.45798 53.9088 1.57175 54.5605 1.71639 55.2057C1.17032 55.2236 0.622624 55.2431 0.0749263 55.2626L0.0505491 55.2642C0.0034179 54.58 -0.00633478 53.8941 0.00341651 53.2099Z" fill="#1179FE"/>
<path d="M13.7501 53.4945C13.8314 53.5693 13.9908 53.7204 14.0705 53.7952C14.5812 54.2649 15.1212 54.7053 15.6694 55.1327C15.0627 55.7357 14.4495 56.3322 13.8087 56.8994C13.2052 56.402 12.6002 55.9047 12.0391 55.3603C12.5579 54.6923 13.1223 54.0601 13.7501 53.4945Z" fill="#FF3F23"/>
<path d="M0.0546875 55.2529C0.60281 55.2334 1.17124 55.2228 1.71774 55.2049C2.3049 57.5534 3.52638 59.7995 5.48628 61.2752C7.79588 63.0629 10.839 63.5342 13.687 63.375C16.5089 63.2189 19.2658 62.4957 21.9121 61.5368C22.8603 61.1825 23.802 60.8103 24.7259 60.3975C25.3586 60.1359 25.975 59.8336 26.5865 59.5248C28.3431 58.6455 30.0623 57.6883 31.7278 56.6465C32.5183 56.1459 33.3023 55.634 34.0748 55.1058C35.4134 55.1708 36.7536 55.1464 38.0922 55.1497C39.4796 55.1692 40.8719 55.0619 42.2495 55.2797C41.15 56.1898 39.9773 57.0089 38.8144 57.8362C38.8095 57.8394 38.7981 57.8475 38.7932 57.8508C33.9106 61.2134 28.592 64.0364 22.8814 65.6974C19.0722 66.7912 15.0321 67.373 11.0879 66.736C8.17973 66.263 5.31225 65.0148 3.28566 62.8289C1.37455 60.7811 0.282394 58.0256 0.0546875 55.2529Z" fill="#0082FF"/>
<path d="M13.8047 56.9027C14.4455 56.3355 15.0587 55.739 15.6654 55.136C15.9435 55.3506 16.2265 55.5602 16.5128 55.7666C16.8055 55.9763 17.1016 56.1843 17.4041 56.3842C16.9161 57.0782 16.4347 57.7819 15.8296 58.3816C15.1351 57.9152 14.465 57.4163 13.8047 56.9027Z" fill="#FF4A1B"/>
<path d="M38.6328 60.9517C41.1246 59.3135 43.4797 57.4753 45.8007 55.6063C46.4057 57.0219 46.9555 58.4619 47.3995 59.9376C44.7354 61.3597 41.8679 62.4031 38.9028 62.9914C38.828 62.3088 38.7385 61.6294 38.6328 60.9517Z" fill="#FFB700"/>
<path d="M15.832 58.3815C16.4371 57.7818 16.9185 57.0781 17.4065 56.3841C17.9497 56.7384 18.5125 57.0667 19.072 57.3982C19.1891 57.4665 19.3078 57.5348 19.4282 57.603C19.0102 58.3376 18.5775 59.0625 18.1449 59.789C17.3544 59.3518 16.5835 58.8821 15.832 58.3815Z" fill="#FF5316"/>
<path d="M19.4317 57.6052C20.149 58.0099 20.8956 58.3577 21.6551 58.6779L21.6226 58.7201C21.0728 59.3637 20.6402 60.0951 20.3149 60.8768C19.5797 60.542 18.8543 60.1845 18.1484 59.7912C18.5811 59.0647 19.0137 58.3398 19.4317 57.6052Z" fill="#FF5E0B"/>
<path d="M38.793 57.8536C38.7972 57.8507 38.8072 57.8436 38.8115 57.8408C38.8072 57.8436 38.7972 57.8507 38.793 57.8536Z" fill="#C0C1C7"/>
<path d="M20.3125 60.8775C20.6378 60.0958 21.0704 59.3644 21.6202 58.7208C22.8352 59.2035 24.0664 59.6472 25.3253 60.0015C25.1252 60.1364 24.9268 60.2729 24.7251 60.4013C23.8013 60.8141 22.8596 61.1863 21.9113 61.5406C21.3713 61.3342 20.8395 61.1115 20.3125 60.8775Z" fill="#FF6900"/>
<path d="M34.4453 63.5134C35.7969 62.5919 37.2738 61.8687 38.6319 60.952C38.7376 61.6297 38.827 62.3091 38.9019 62.9917C37.4299 63.2534 35.9433 63.4971 34.4453 63.5134Z" fill="#FFA500"/>
</svg>
