<svg width="66" height="66" viewBox="0 0 66 66" fill="none" xmlns="http://www.w3.org/2000/svg">
<rect x="0.5" y="0.5" width="65" height="65" rx="9.5" stroke="#E2E8F0"/>
<g clip-path="url(#clip0_4316_1039)">
<path d="M33 18C24.7158 18 18 24.7158 18 33C18 40.0344 22.8432 45.9372 29.3766 47.5584V37.584H26.2836V33H29.3766V31.0248C29.3766 25.9194 31.6872 23.553 36.6996 23.553C37.65 23.553 39.2898 23.7396 39.9606 23.9256V28.0806C39.6066 28.0434 38.9916 28.0248 38.2278 28.0248C35.7684 28.0248 34.818 28.9566 34.818 31.3788V33H39.7176L38.8758 37.584H34.818V47.8902C42.2454 46.9932 48.0006 40.6692 48.0006 33C48 24.7158 41.2842 18 33 18Z" fill="white"/>
</g>
<defs>
<clipPath id="clip0_4316_1039">
<rect width="30" height="30" fill="white" transform="translate(18 18)"/>
</clipPath>
</defs>
</svg>
