<svg width="67" height="66" viewBox="0 0 67 66" fill="none" xmlns="http://www.w3.org/2000/svg">
<rect x="1" y="0.5" width="65" height="65" rx="9.5" stroke="#E2E8F0"/>
<g clip-path="url(#clip0_4316_1041)">
<path d="M33.5 20.7012C37.5078 20.7012 37.9824 20.7187 39.5586 20.7891C41.0234 20.8535 41.8145 21.0996 42.3418 21.3047C43.0391 21.5742 43.543 21.9023 44.0645 22.4238C44.5918 22.9512 44.9141 23.4492 45.1836 24.1465C45.3887 24.6738 45.6348 25.4707 45.6992 26.9297C45.7695 28.5117 45.7871 28.9863 45.7871 32.9883C45.7871 36.9961 45.7695 37.4707 45.6992 39.0469C45.6348 40.5117 45.3887 41.3027 45.1836 41.8301C44.9141 42.5273 44.5859 43.0313 44.0645 43.5527C43.5371 44.0801 43.0391 44.4023 42.3418 44.6719C41.8145 44.877 41.0176 45.123 39.5586 45.1875C37.9766 45.2578 37.502 45.2754 33.5 45.2754C29.4922 45.2754 29.0176 45.2578 27.4414 45.1875C25.9766 45.123 25.1855 44.877 24.6582 44.6719C23.9609 44.4023 23.457 44.0742 22.9355 43.5527C22.4082 43.0254 22.0859 42.5273 21.8164 41.8301C21.6113 41.3027 21.3652 40.5059 21.3008 39.0469C21.2305 37.4648 21.2129 36.9902 21.2129 32.9883C21.2129 28.9805 21.2305 28.5059 21.3008 26.9297C21.3652 25.4648 21.6113 24.6738 21.8164 24.1465C22.0859 23.4492 22.4141 22.9453 22.9355 22.4238C23.4629 21.8965 23.9609 21.5742 24.6582 21.3047C25.1855 21.0996 25.9824 20.8535 27.4414 20.7891C29.0176 20.7187 29.4922 20.7012 33.5 20.7012ZM33.5 18C29.4277 18 28.918 18.0176 27.3184 18.0879C25.7246 18.1582 24.6289 18.416 23.6797 18.7852C22.6895 19.1719 21.8516 19.6816 21.0195 20.5195C20.1816 21.3516 19.6719 22.1895 19.2852 23.1738C18.916 24.1289 18.6582 25.2187 18.5879 26.8125C18.5176 28.418 18.5 28.9277 18.5 33C18.5 37.0723 18.5176 37.582 18.5879 39.1816C18.6582 40.7754 18.916 41.8711 19.2852 42.8203C19.6719 43.8105 20.1816 44.6484 21.0195 45.4805C21.8516 46.3125 22.6895 46.8281 23.6738 47.209C24.6289 47.5781 25.7188 47.8359 27.3125 47.9062C28.9121 47.9766 29.4219 47.9941 33.4941 47.9941C37.5664 47.9941 38.0762 47.9766 39.6758 47.9062C41.2695 47.8359 42.3652 47.5781 43.3145 47.209C44.2988 46.8281 45.1367 46.3125 45.9688 45.4805C46.8008 44.6484 47.3164 43.8105 47.6973 42.8262C48.0664 41.8711 48.3242 40.7813 48.3945 39.1875C48.4648 37.5879 48.4824 37.0781 48.4824 33.0059C48.4824 28.9336 48.4648 28.4238 48.3945 26.8242C48.3242 25.2305 48.0664 24.1348 47.6973 23.1855C47.3281 22.1895 46.8184 21.3516 45.9805 20.5195C45.1484 19.6875 44.3105 19.1719 43.3262 18.791C42.3711 18.4219 41.2813 18.1641 39.6875 18.0938C38.082 18.0176 37.5723 18 33.5 18Z" fill="white"/>
<path d="M33.5 25.2949C29.2461 25.2949 25.7949 28.7461 25.7949 33C25.7949 37.2539 29.2461 40.7051 33.5 40.7051C37.7539 40.7051 41.2051 37.2539 41.2051 33C41.2051 28.7461 37.7539 25.2949 33.5 25.2949ZM33.5 37.998C30.7402 37.998 28.502 35.7598 28.502 33C28.502 30.2402 30.7402 28.002 33.5 28.002C36.2598 28.002 38.498 30.2402 38.498 33C38.498 35.7598 36.2598 37.998 33.5 37.998Z" fill="white"/>
<path d="M43.3086 24.9902C43.3086 25.9863 42.5 26.7891 41.5098 26.7891C40.5137 26.7891 39.7109 25.9805 39.7109 24.9902C39.7109 23.9941 40.5195 23.1914 41.5098 23.1914C42.5 23.1914 43.3086 24 43.3086 24.9902Z" fill="white"/>
</g>
<defs>
<clipPath id="clip0_4316_1041">
<rect width="30" height="30" fill="white" transform="translate(18.5 18)"/>
</clipPath>
</defs>
</svg>
