<svg width="67" height="66" viewBox="0 0 67 66" fill="none" xmlns="http://www.w3.org/2000/svg">
<rect x="1" y="0.5" width="65" height="65" rx="9.5" stroke="#E2E8F0"/>
<g clip-path="url(#clip0_4316_1045)">
<path fill-rule="evenodd" clip-rule="evenodd" d="M48.5 33C48.5 41.2843 41.7843 48 33.5 48C25.2157 48 18.5 41.2843 18.5 33C18.5 24.7157 25.2157 18 33.5 18C41.7843 18 48.5 24.7157 48.5 33ZM34.0375 29.0737C32.5786 29.6805 29.6627 30.9365 25.2899 32.8417C24.5798 33.124 24.2078 33.4003 24.174 33.6704C24.1167 34.1269 24.6884 34.3066 25.4668 34.5514C25.5727 34.5847 25.6824 34.6192 25.7949 34.6558C26.5608 34.9047 27.591 35.196 28.1266 35.2075C28.6124 35.218 29.1547 35.0177 29.7533 34.6067C33.8389 31.8488 35.948 30.4548 36.0804 30.4247C36.1738 30.4035 36.3032 30.3769 36.391 30.4548C36.4787 30.5328 36.47 30.6804 36.4608 30.72C36.4041 30.9614 34.1602 33.0476 32.9989 34.1272C32.6369 34.4638 32.3801 34.7025 32.3276 34.757C32.21 34.8792 32.0902 34.9947 31.975 35.1058C31.2635 35.7917 30.7299 36.306 32.0045 37.146C32.6171 37.5496 33.1072 37.8834 33.5962 38.2164C34.1302 38.5801 34.6629 38.9428 35.352 39.3946C35.5276 39.5097 35.6953 39.6292 35.8586 39.7457C36.4801 40.1887 37.0384 40.5868 37.7282 40.5233C38.1291 40.4864 38.5431 40.1095 38.7533 38.9854C39.2503 36.3289 40.227 30.5731 40.4528 28.2012C40.4726 27.9934 40.4477 27.7275 40.4277 27.6107C40.4077 27.494 40.366 27.3276 40.2142 27.2045C40.0345 27.0587 39.757 27.0279 39.633 27.0301C39.0688 27.04 38.2032 27.341 34.0375 29.0737Z" fill="white"/>
</g>
<defs>
<clipPath id="clip0_4316_1045">
<rect width="30" height="30" fill="white" transform="translate(18.5 18)"/>
</clipPath>
</defs>
</svg>
