<svg width="66" height="66" viewBox="0 0 66 66" fill="none" xmlns="http://www.w3.org/2000/svg">
<rect x="0.5" y="0.5" width="65.0001" height="65" rx="9.5" stroke="#E2E8F0"/>
<path d="M18 48L20.1087 40.2962C18.8075 38.0413 18.1238 35.485 18.125 32.8637C18.1288 24.6687 24.7975 18 32.9913 18C36.9675 18.0013 40.7 19.55 43.5075 22.36C46.3137 25.17 47.8588 28.905 47.8575 32.8775C47.8538 41.0738 41.185 47.7425 32.9913 47.7425C30.5037 47.7413 28.0525 47.1175 25.8812 45.9325L18 48ZM26.2462 43.2413C28.3412 44.485 30.3412 45.23 32.9862 45.2313C39.7962 45.2313 45.3438 39.6887 45.3475 32.875C45.35 26.0475 39.8288 20.5125 32.9963 20.51C26.1812 20.51 20.6375 26.0525 20.635 32.865C20.6337 35.6462 21.4488 37.7287 22.8175 39.9075L21.5687 44.4675L26.2462 43.2413ZM40.48 36.4113C40.3875 36.2563 40.14 36.1637 39.7675 35.9775C39.3963 35.7913 37.57 34.8925 37.2287 34.7687C36.8888 34.645 36.6413 34.5825 36.3925 34.955C36.145 35.3263 35.4325 36.1637 35.2162 36.4113C35 36.6588 34.7825 36.69 34.4112 36.5037C34.04 36.3175 32.8425 35.9263 31.4237 34.66C30.32 33.675 29.5737 32.4587 29.3575 32.0863C29.1412 31.715 29.335 31.5138 29.52 31.3288C29.6875 31.1625 29.8912 30.895 30.0775 30.6775C30.2662 30.4625 30.3275 30.3075 30.4525 30.0588C30.5763 29.8113 30.515 29.5938 30.4213 29.4075C30.3275 29.2225 29.585 27.3938 29.2762 26.65C28.9738 25.9262 28.6675 26.0237 28.44 26.0125L27.7275 26C27.48 26 27.0775 26.0925 26.7375 26.465C26.3975 26.8375 25.4375 27.735 25.4375 29.5638C25.4375 31.3925 26.7687 33.1587 26.9537 33.4062C27.14 33.6537 29.5725 37.4062 33.2987 39.015C34.185 39.3975 34.8775 39.6262 35.4163 39.7975C36.3062 40.08 37.1163 40.04 37.7563 39.945C38.47 39.8387 39.9538 39.0462 40.2638 38.1787C40.5738 37.31 40.5738 36.5662 40.48 36.4113Z" fill="white"/>
</svg>
